<svg xmlns="http://www.w3.org/2000/svg" viewBox="0 0 260 120" role="img" aria-label="NorthStar compass star and globe"><g transform="translate(130,60) scale(1.97875) translate(-112.54,-27.25)"><path fill="#6E7D90" d="m112.54,7.04c-34.4,0-62.3,9.05-62.3,20.21s27.89,20.21,62.3,20.21,62.3-9.05,62.3-20.21-27.89-20.21-62.3-20.21Zm61.24,19.7h-11.38c-.44-7.2-10.16-13.46-24.52-16.9,20.52,3.02,35.25,9.52,35.9,16.9Zm-95.63,0h-14.45c.57-8.2,15.01-15.32,34.23-17.77-11.45,3.16-19.45,9.9-19.78,17.77Zm34.39-18.69c18.13,0,32.9,8.34,33.37,18.69h-66.75c.47-10.35,15.24-18.69,33.37-18.69Zm-34.39,19.7c.33,7.87,8.32,14.61,19.78,17.77-19.22-2.46-33.65-9.57-34.23-17.77h14.45Zm1.01,0h66.75c-.47,10.35-15.24,18.69-33.37,18.69s-32.9-8.34-33.37-18.69Zm67.76,0h14.45c-.58,8.2-15.01,15.32-34.23,17.77,11.45-3.16,19.45-9.9,19.78-17.77Zm0-1.01c-.33-7.87-8.33-14.61-19.78-17.77,19.22,2.46,33.66,9.57,34.23,17.77h-14.45Zm-59.73-16.9c-14.35,3.44-24.08,9.7-24.52,16.9h-11.38c.65-7.39,15.38-13.89,35.9-16.9Zm-35.9,17.91h11.38c.44,7.2,10.16,13.46,24.52,16.9-20.52-3.02-35.25-9.52-35.9-16.9Zm86.58,16.9c14.35-3.44,24.08-9.7,24.52-16.9h11.38c-.65,7.39-15.38,13.89-35.9,16.9Z"></path><polygon fill="#104C8E" points="135.77,27.29 121.32,22.93 124.8,16.48 116.82,20.49 112.5,0 112.49,0.1 112.49,0 108.17,20.49 100.19,16.48 103.67,22.93 89.22,27.29 103.67,31.64 100.19,38.1 108.17,34.08 112.49,54.58 112.49,54.36 112.5,54.58 116.82,34.08 124.8,38.1 121.32,31.64 135.77,27.29"></polygon></g></svg>